<svg xmlns="http://www.w3.org/2000/svg" xmlns:xlink="http://www.w3.org/1999/xlink" width="360" zoomAndPan="magnify" viewBox="0 0 270 95.999999" height="128" preserveAspectRatio="xMidYMid meet" version="1.0"><defs><g/><clipPath id="bc870584e6"><path d="M 0.75 15.097656 L 92.179688 15.097656 L 92.179688 80.828125 L 0.75 80.828125 Z M 0.75 15.097656 " clip-rule="nonzero"/></clipPath><clipPath id="371f790738"><path d="M 46.460938 15.097656 L 92.175781 15.097656 L 92.175781 80.828125 L 46.460938 80.828125 Z M 46.460938 15.097656 " clip-rule="nonzero"/></clipPath></defs><rect x="-27" width="324" fill="#ffffff" y="-9.6" height="115.199999" fill-opacity="1"/><rect x="-27" width="324" fill="transparent" y="-9.6" height="115.199999" fill-opacity="1"/><g fill="#00a76f" fill-opacity="1"><g transform="translate(102.994449, 60.539208)"><g><path d="M 7.25 0 L 0.921875 0 L 10.5625 -27.9375 L 18.171875 -27.9375 L 27.8125 0 L 21.46875 0 L 19.40625 -6.375 L 9.3125 -6.375 Z M 10.8125 -10.984375 L 17.921875 -10.984375 L 14.46875 -21.5625 L 14.265625 -21.5625 Z M 10.8125 -10.984375 "/></g></g></g><g fill="#00a76f" fill-opacity="1"><g transform="translate(131.732949, 60.539208)"><g><path d="M 10.046875 0.34375 C 8.453125 0.34375 7.015625 -0.0664062 5.734375 -0.890625 C 4.453125 -1.710938 3.429688 -2.925781 2.671875 -4.53125 C 1.921875 -6.132812 1.546875 -8.109375 1.546875 -10.453125 C 1.546875 -12.847656 1.929688 -14.84375 2.703125 -16.4375 C 3.484375 -18.039062 4.515625 -19.238281 5.796875 -20.03125 C 7.085938 -20.832031 8.5 -21.234375 10.03125 -21.234375 C 11.195312 -21.234375 12.175781 -21.035156 12.96875 -20.640625 C 13.757812 -20.242188 14.394531 -19.753906 14.875 -19.171875 C 15.363281 -18.585938 15.734375 -18.007812 15.984375 -17.4375 L 16.171875 -17.4375 L 16.171875 -27.9375 L 21.96875 -27.9375 L 21.96875 0 L 16.234375 0 L 16.234375 -3.359375 L 15.984375 -3.359375 C 15.722656 -2.773438 15.34375 -2.195312 14.84375 -1.625 C 14.34375 -1.0625 13.695312 -0.59375 12.90625 -0.21875 C 12.125 0.15625 11.171875 0.34375 10.046875 0.34375 Z M 11.890625 -4.28125 C 13.285156 -4.28125 14.367188 -4.847656 15.140625 -5.984375 C 15.910156 -7.117188 16.296875 -8.617188 16.296875 -10.484375 C 16.296875 -12.359375 15.910156 -13.847656 15.140625 -14.953125 C 14.378906 -16.054688 13.296875 -16.609375 11.890625 -16.609375 C 10.453125 -16.609375 9.359375 -16.039062 8.609375 -14.90625 C 7.859375 -13.769531 7.484375 -12.296875 7.484375 -10.484375 C 7.484375 -8.648438 7.859375 -7.15625 8.609375 -6 C 9.359375 -4.851562 10.453125 -4.28125 11.890625 -4.28125 Z M 11.890625 -4.28125 "/></g></g></g><g fill="#00a76f" fill-opacity="1"><g transform="translate(156.14567, 60.539208)"><g><path d="M 19.75 -14.984375 L 14.4375 -14.65625 C 14.289062 -15.320312 13.921875 -15.894531 13.328125 -16.375 C 12.734375 -16.863281 11.929688 -17.109375 10.921875 -17.109375 C 10.023438 -17.109375 9.265625 -16.921875 8.640625 -16.546875 C 8.015625 -16.171875 7.707031 -15.664062 7.71875 -15.03125 C 7.707031 -14.53125 7.90625 -14.109375 8.3125 -13.765625 C 8.71875 -13.421875 9.410156 -13.144531 10.390625 -12.9375 L 14.171875 -12.171875 C 18.203125 -11.335938 20.222656 -9.445312 20.234375 -6.5 C 20.234375 -5.125 19.828125 -3.914062 19.015625 -2.875 C 18.210938 -1.84375 17.109375 -1.035156 15.703125 -0.453125 C 14.304688 0.117188 12.707031 0.40625 10.90625 0.40625 C 8.125 0.40625 5.910156 -0.171875 4.265625 -1.328125 C 2.617188 -2.484375 1.660156 -4.066406 1.390625 -6.078125 L 7.109375 -6.375 C 7.285156 -5.519531 7.703125 -4.875 8.359375 -4.4375 C 9.023438 -4 9.878906 -3.78125 10.921875 -3.78125 C 11.929688 -3.78125 12.75 -3.976562 13.375 -4.375 C 14 -4.78125 14.316406 -5.289062 14.328125 -5.90625 C 14.296875 -6.945312 13.398438 -7.644531 11.640625 -8 L 8.015625 -8.71875 C 3.953125 -9.53125 1.929688 -11.523438 1.953125 -14.703125 C 1.941406 -16.722656 2.75 -18.316406 4.375 -19.484375 C 6 -20.648438 8.148438 -21.234375 10.828125 -21.234375 C 13.472656 -21.234375 15.554688 -20.671875 17.078125 -19.546875 C 18.609375 -18.429688 19.5 -16.910156 19.75 -14.984375 Z M 19.75 -14.984375 "/></g></g></g><g fill="#00a76f" fill-opacity="1"><g transform="translate(177.733661, 60.539208)"><g/></g></g><g fill="#00a76f" fill-opacity="1"><g transform="translate(186.644505, 60.539208)"><g><path d="M 2.421875 0 L 2.421875 -27.9375 L 8.34375 -27.9375 L 8.34375 -15.625 L 8.703125 -15.625 L 18.765625 -27.9375 L 25.84375 -27.9375 L 15.46875 -15.4375 L 25.96875 0 L 18.890625 0 L 11.25 -11.484375 L 8.34375 -7.9375 L 8.34375 0 Z M 2.421875 0 "/></g></g></g><g fill="#00a76f" fill-opacity="1"><g transform="translate(213.145063, 60.539208)"><g><path d="M 2.3125 0 L 2.3125 -20.953125 L 8.125 -20.953125 L 8.125 0 Z M 5.234375 -23.65625 C 4.378906 -23.65625 3.640625 -23.941406 3.015625 -24.515625 C 2.398438 -25.097656 2.09375 -25.796875 2.09375 -26.609375 C 2.09375 -27.421875 2.398438 -28.113281 3.015625 -28.6875 C 3.640625 -29.257812 4.378906 -29.546875 5.234375 -29.546875 C 6.097656 -29.546875 6.835938 -29.257812 7.453125 -28.6875 C 8.078125 -28.113281 8.390625 -27.421875 8.390625 -26.609375 C 8.390625 -25.796875 8.078125 -25.097656 7.453125 -24.515625 C 6.835938 -23.941406 6.097656 -23.65625 5.234375 -23.65625 Z M 5.234375 -23.65625 "/></g></g></g><g fill="#00a76f" fill-opacity="1"><g transform="translate(223.597911, 60.539208)"><g><path d="M 8.125 -12.109375 L 8.125 0 L 2.3125 0 L 2.3125 -20.953125 L 7.859375 -20.953125 L 7.859375 -17.265625 L 8.109375 -17.265625 C 8.578125 -18.484375 9.351562 -19.445312 10.4375 -20.15625 C 11.53125 -20.875 12.851562 -21.234375 14.40625 -21.234375 C 16.59375 -21.234375 18.34375 -20.53125 19.65625 -19.125 C 20.976562 -17.71875 21.640625 -15.789062 21.640625 -13.34375 L 21.640625 0 L 15.828125 0 L 15.828125 -12.3125 C 15.835938 -13.59375 15.507812 -14.59375 14.84375 -15.3125 C 14.175781 -16.039062 13.265625 -16.40625 12.109375 -16.40625 C 10.929688 -16.40625 9.972656 -16.03125 9.234375 -15.28125 C 8.503906 -14.53125 8.132812 -13.472656 8.125 -12.109375 Z M 8.125 -12.109375 "/></g></g></g><g fill="#00a76f" fill-opacity="1"><g transform="translate(247.49208, 60.539208)"><g><path d="M 11.765625 8.15625 C 8.941406 8.15625 6.722656 7.597656 5.109375 6.484375 C 3.503906 5.378906 2.53125 4.035156 2.1875 2.453125 L 7.5625 1.734375 C 7.789062 2.296875 8.25 2.8125 8.9375 3.28125 C 9.625 3.75 10.609375 3.984375 11.890625 3.984375 C 13.160156 3.984375 14.207031 3.679688 15.03125 3.078125 C 15.851562 2.484375 16.265625 1.5 16.265625 0.125 L 16.265625 -3.71875 L 16.015625 -3.71875 C 15.628906 -2.851562 14.953125 -2.066406 13.984375 -1.359375 C 13.023438 -0.648438 11.710938 -0.296875 10.046875 -0.296875 C 8.472656 -0.296875 7.039062 -0.664062 5.75 -1.40625 C 4.46875 -2.144531 3.445312 -3.269531 2.6875 -4.78125 C 1.925781 -6.289062 1.546875 -8.203125 1.546875 -10.515625 C 1.546875 -12.898438 1.929688 -14.882812 2.703125 -16.46875 C 3.484375 -18.050781 4.515625 -19.238281 5.796875 -20.03125 C 7.085938 -20.832031 8.5 -21.234375 10.03125 -21.234375 C 11.195312 -21.234375 12.175781 -21.035156 12.96875 -20.640625 C 13.757812 -20.242188 14.398438 -19.753906 14.890625 -19.171875 C 15.390625 -18.585938 15.765625 -18.007812 16.015625 -17.4375 L 16.234375 -17.4375 L 16.234375 -20.953125 L 22.015625 -20.953125 L 22.015625 0.203125 C 22.015625 1.941406 21.570312 3.398438 20.6875 4.578125 C 19.8125 5.765625 18.601562 6.65625 17.0625 7.25 C 15.53125 7.851562 13.765625 8.15625 11.765625 8.15625 Z M 11.890625 -4.671875 C 13.285156 -4.671875 14.367188 -5.1875 15.140625 -6.21875 C 15.910156 -7.257812 16.296875 -8.703125 16.296875 -10.546875 C 16.296875 -12.378906 15.910156 -13.847656 15.140625 -14.953125 C 14.378906 -16.054688 13.296875 -16.609375 11.890625 -16.609375 C 10.453125 -16.609375 9.359375 -16.039062 8.609375 -14.90625 C 7.859375 -13.78125 7.484375 -12.328125 7.484375 -10.546875 C 7.484375 -8.734375 7.859375 -7.300781 8.609375 -6.25 C 9.359375 -5.195312 10.453125 -4.671875 11.890625 -4.671875 Z M 11.890625 -4.671875 "/></g></g></g><g clip-path="url(#bc870584e6)"><path fill="#00a76f" d="M 85.011719 53.191406 L 77.589844 61.269531 L 69.953125 69.566406 L 59.679688 62.328125 L 62.671875 56.90625 L 69.023438 61.191406 L 80.394531 48.476562 L 80.375 48.445312 L 92.300781 35.3125 L 88.207031 75.152344 L 79.265625 61.402344 L 83.71875 56.460938 L 84.371094 57.5625 Z M 58.761719 48.777344 L 46.472656 68.601562 L 40.550781 58.964844 L 35.238281 62.625 C 38.429688 67.140625 43.1875 75.53125 46.472656 80.886719 C 49.566406 75.675781 54.183594 67.714844 57.8125 62.625 L 57.710938 62.554688 L 69.023438 44.25 L 74.457031 53.464844 L 78.722656 48.273438 L 68.835938 32.148438 Z M 9.339844 56.464844 L 14.332031 48.277344 L 14.328125 48.273438 L 24.214844 32.148438 L 35.820312 51.308594 L 30.800781 55.023438 L 24.402344 44.25 L 13.746094 61.359375 L 13.789062 61.402344 L 4.847656 75.152344 L 0.75 35.3125 L 12.675781 48.445312 L 9.09375 54.289062 L 8.042969 53.191406 L 8.679688 57.5625 L 9.335938 56.460938 Z M 19.515625 52.0625 L 19.515625 52.066406 Z M 45.355469 44.808594 L 55.453125 51.695312 L 52.101562 57.097656 L 32.707031 43.878906 C 32.707031 42.859375 41.835938 24.785156 46.472656 15.109375 C 51.21875 24.785156 60.34375 42.859375 60.34375 43.878906 L 53.335938 48.65625 L 47.695312 44.808594 L 52.335938 41.644531 C 52.335938 40.949219 49.59375 35.402344 46.527344 29.273438 C 43.457031 35.402344 40.714844 40.945312 40.714844 41.644531 Z M 37.597656 51.695312 L 24.027344 61.191406 L 18.824219 55.671875 L 15.460938 61.269531 L 23.097656 69.566406 L 45.304688 54.128906 L 39.722656 50.246094 Z M 37.597656 51.695312 " fill-opacity="1" fill-rule="evenodd"/></g><g clip-path="url(#371f790738)"><path fill="#007867" d="M 85.011719 53.191406 L 77.589844 61.269531 L 69.953125 69.566406 L 59.679688 62.328125 L 62.671875 56.90625 L 69.023438 61.191406 L 80.394531 48.476562 L 80.375 48.445312 L 92.300781 35.3125 L 88.207031 75.152344 L 79.265625 61.402344 L 83.71875 56.460938 L 84.371094 57.5625 Z M 58.761719 48.777344 L 46.472656 68.601562 L 40.550781 58.964844 L 35.238281 62.625 C 38.429688 67.140625 43.1875 75.53125 46.472656 80.886719 C 49.566406 75.675781 54.183594 67.714844 57.8125 62.625 L 57.710938 62.554688 L 69.023438 44.25 L 74.457031 53.464844 L 78.722656 48.273438 L 68.835938 32.148438 Z M 9.339844 56.464844 L 14.332031 48.277344 L 14.328125 48.273438 L 24.214844 32.148438 L 35.820312 51.308594 L 30.800781 55.023438 L 24.402344 44.25 L 13.746094 61.359375 L 13.789062 61.402344 L 4.847656 75.152344 L 0.75 35.3125 L 12.675781 48.445312 L 9.09375 54.289062 L 8.042969 53.191406 L 8.679688 57.5625 L 9.335938 56.460938 Z M 19.515625 52.0625 L 19.515625 52.066406 Z M 45.355469 44.808594 L 55.453125 51.695312 L 52.101562 57.097656 L 32.707031 43.878906 C 32.707031 42.859375 41.835938 24.785156 46.472656 15.109375 C 51.21875 24.785156 60.34375 42.859375 60.34375 43.878906 L 53.335938 48.65625 L 47.695312 44.808594 L 52.335938 41.644531 C 52.335938 40.949219 49.59375 35.402344 46.527344 29.273438 C 43.457031 35.402344 40.714844 40.945312 40.714844 41.644531 Z M 37.597656 51.695312 L 24.027344 61.191406 L 18.824219 55.671875 L 15.460938 61.269531 L 23.097656 69.566406 L 45.304688 54.128906 L 39.722656 50.246094 Z M 37.597656 51.695312 " fill-opacity="1" fill-rule="evenodd"/></g></svg>