<?xml version="1.0" encoding="utf-8"?>
<!DOCTYPE svg PUBLIC "-//W3C//DTD SVG 1.0//EN" "http://www.w3.org/TR/2001/REC-SVG-20010904/DTD/svg10.dtd">
<svg version="1.0" xmlns="http://www.w3.org/2000/svg" width="500px" height="500px" viewBox="0 0 500 500" preserveAspectRatio="xMidYMid meet">
 <g fill="transparent">
  <path d="M0 250 l0 -250 250 0 250 0 0 250 0 250 -250 0 -250 0 0 -250z m250.50 164.50 c0 -0.55 25.10 -42.35 34.30 -57.05 4.35 -7 10.90 -17.20 14.60 -22.70 3.70 -5.50 6.90 -10.50 7.15 -11.10 0.20 -0.60 2.40 -4.30 4.85 -8.25 5.70 -9.15 13.85 -22.35 20.50 -33.15 2.90 -4.65 6.30 -10.20 7.60 -12.25 1.30 -2.05 4.15 -6.65 6.35 -10.25 2.20 -3.55 7 -11.35 10.65 -17.25 3.65 -5.90 6.95 -11.25 7.35 -11.85 0.50 -0.85 1.15 -1.15 2.40 -1.15 1.45 0 1.85 0.25 2.55 1.65 0.45 0.85 2.45 4.30 4.45 7.60 1.95 3.30 4.70 7.90 6.10 10.25 5.60 9.50 13.80 23.30 14.50 24.40 0.70 1.10 0.80 1 6.20 -5.50 6.60 -7.95 6.60 -7.95 9.45 -11.40 1.25 -1.50 2.35 -2.85 2.50 -3 2.30 -2.25 2.35 -1.95 -1.90 -8.85 -2.15 -3.50 -6.50 -10.55 -9.60 -15.65 -3.10 -5.10 -7.35 -12.05 -9.50 -15.50 -2.10 -3.45 -8.20 -13.35 -13.50 -22 -12.40 -20.30 -12.35 -20.20 -12.65 -19.70 -0.10 0.25 -0.70 1.25 -1.25 2.20 -0.55 0.95 -2.85 4.80 -5.10 8.50 -2.25 3.70 -5.40 8.90 -7 11.50 -1.55 2.60 -6.10 10.05 -10 16.50 -3.95 6.45 -11.55 19.05 -17 28 -8.80 14.65 -12.65 20.85 -18.50 30.25 -1.05 1.65 -4.85 7.85 -8.55 13.75 -3.65 5.90 -9.20 14.90 -12.35 20 -6.25 10 -8.50 13.65 -18.60 30 -3.65 5.90 -8.55 13.75 -10.85 17.40 -2.25 3.70 -4.15 6.90 -4.15 7.15 0 0.25 -0.90 0.45 -1.95 0.45 -2.25 0 -0.25 2.95 -19.45 -28.50 -6.45 -10.60 -11.80 -19.30 -11.85 -19.40 -0.20 -0.20 -23.50 15.90 -23.65 16.40 -0.10 0.20 2.50 4.55 5.80 9.60 7.60 11.70 16.40 26.15 34.35 56.30 11.65 19.45 14.50 24 15.05 23.55 0.40 -0.30 0.70 -0.75 0.70 -0.95z m215 -38 c0.85 -8.70 1.45 -14.75 1.95 -19.75 0.30 -2.45 0.75 -6.85 1.05 -9.75 0.30 -2.90 0.75 -7.25 1 -9.75 0.25 -2.45 0.70 -6.85 1 -9.75 0.30 -2.90 0.75 -7.25 1 -9.75 0.25 -2.45 0.70 -6.80 1 -9.60 0.25 -2.85 0.75 -7.45 1 -10.25 0.30 -2.85 0.75 -7.25 1 -9.75 0.30 -2.55 0.70 -6.75 1 -9.25 0.25 -2.55 0.70 -6.95 1 -9.75 0.25 -2.85 0.75 -7.45 1 -10.25 0.30 -2.85 0.75 -7.15 1 -9.65 0.25 -2.45 0.70 -6.75 1 -9.50 0.30 -2.75 0.75 -7.15 1 -9.75 0.25 -2.60 0.70 -7 1 -9.75 0.30 -2.75 0.75 -7.25 1.05 -10 0.25 -2.75 0.70 -7 0.95 -9.50 0.95 -8.80 1.15 -11.50 0.90 -11.25 -0.35 0.35 -30.65 33.75 -40.40 44.50 -2.60 2.90 -5.90 6.50 -7.30 8 -1.40 1.50 -3.65 4 -5 5.50 -1.35 1.50 -2.55 2.85 -2.70 3 -0.15 0.15 -1.35 1.60 -2.75 3.25 -1.35 1.65 -3.70 4.35 -5.20 6 -1.50 1.65 -3.50 3.90 -4.50 5 -1 1.10 -5.50 6.15 -10.05 11.25 -4.50 5.10 -8.35 9.35 -8.50 9.50 -0.15 0.15 -1.95 2.15 -4 4.50 -2.05 2.35 -3.85 4.35 -4 4.50 -0.15 0.15 -1.95 2.15 -4 4.50 -2.05 2.35 -4.25 4.80 -4.90 5.50 -0.65 0.70 -3.90 4.35 -7.25 8.15 -7.60 8.55 -7.10 8.45 -15 3 -11.45 -7.85 -23.80 -16.15 -24.50 -16.40 -0.40 -0.20 -0.95 0.30 -1.40 1.10 -0.40 0.75 -1.50 2.85 -2.50 4.65 -7.75 13.90 -9.95 18.10 -9.75 18.40 0.25 0.40 6.25 4.70 19.30 13.90 3.70 2.60 7.55 5.30 8.50 6 0.95 0.70 3.55 2.50 5.75 4.05 2.20 1.55 6.80 4.80 10.25 7.20 l6.20 4.40 1 -1.10 c1.90 -2.15 6 -6.65 8.75 -9.60 3.85 -4.10 11.25 -12.15 31.05 -33.75 6.70 -7.30 14.55 -15.85 17.50 -19 2.95 -3.15 8.10 -8.80 11.50 -12.50 5.25 -5.70 6.50 -6.75 7.85 -6.90 1.65 -0.15 1.65 -0.15 1.65 2 -0.05 2.20 -0.45 5.65 -1.50 12.40 -0.35 2.05 -0.75 5 -0.90 6.50 -0.35 2.70 -0.35 2.75 -2.15 2.90 -1.45 0.10 -1.85 -0.05 -2.45 -1.15 -0.35 -0.70 -0.85 -1.25 -1.05 -1.25 -0.20 0 -3.35 3.30 -7 7.40 -3.70 4.05 -7.80 8.55 -9.20 10 -4.30 4.60 -4.30 4.40 -1.50 8.65 2.65 4 18.55 28.45 23.15 35.60 1.60 2.40 4.90 7.45 7.35 11.25 2.50 3.80 5.60 8.65 7 10.80 2.40 3.85 2.50 3.90 2.85 2.50 0.20 -0.80 0.60 -4.05 0.90 -7.20z m-408.75 -25 c11.50 -17.75 21.30 -32.95 21.70 -33.80 0.45 -0.85 12.95 -21.05 27.80 -44.90 l27 -43.30 1.80 0 1.85 0 7.90 13.35 c6.80 11.40 22.20 37.35 23.60 39.65 0.35 0.55 2.45 -0.80 10.40 -6.65 5.45 -4.05 10.55 -7.85 11.30 -8.50 l1.30 -1.10 -28.40 -46.90 c-15.65 -25.80 -28.60 -46.90 -28.85 -46.95 -0.20 0 -3.30 4.70 -6.85 10.40 -14.55 23.60 -63.40 103.55 -70.90 116.10 -0.80 1.30 -1.30 1.60 -2.70 1.60 -1 0 -1.70 -0.25 -1.70 -0.60 0 -0.35 -0.70 -5.15 -1.50 -10.65 -0.80 -5.50 -1.50 -10.75 -1.50 -11.60 0 -1.60 0.10 -1.65 1.95 -1.65 1.60 0 2.20 0.30 3.20 1.55 l1.25 1.60 1.20 -1.95 c4.05 -6.50 14.40 -23.60 14.65 -24.30 0.25 -0.60 -3.35 -4.85 -12.55 -15 -7.05 -7.75 -19.75 -21.75 -28.15 -31 -8.40 -9.30 -15.35 -16.70 -15.45 -16.50 -0.05 0.25 1 11.30 2.40 24.65 1.35 13.30 3.25 31.95 4.25 41.45 0.95 9.50 2.30 22.65 3 29.25 0.65 6.60 1.90 18.65 2.75 26.75 0.80 8.10 2.30 22.30 3.20 31.50 0.95 9.20 2.20 21.35 2.80 27 1.20 12.10 1.45 13.80 1.95 13.20 0.20 -0.25 9.80 -14.95 21.30 -32.70z m127.70 -31.50 c30.25 -21.05 55 -38.35 55 -38.50 0 -0.15 -5.65 -4.10 -12.55 -8.85 l-12.50 -8.60 -3.10 2.05 c-1.65 1.15 -19.55 13.65 -39.70 27.80 -34.20 23.90 -36.80 25.65 -38.50 25.50 -1.75 -0.15 -2.75 -1.10 -13.55 -12.65 -6.45 -6.85 -12 -12.80 -12.30 -13.15 -0.50 -0.55 -2.05 1.65 -8.20 11.90 l-7.55 12.60 1.60 1.80 c0.85 1.05 9 9.95 18.10 19.80 9.10 9.85 16.65 18.15 16.75 18.40 0.05 0.25 0.45 0.40 0.85 0.30 0.35 -0.10 25.40 -17.35 55.65 -38.40z m94.75 -27.60 c0.55 -0.90 3.85 -6.30 7.40 -11.95 3.50 -5.70 6.40 -10.55 6.40 -10.75 0 -0.25 -1.40 -1.40 -3.15 -2.55 -3.65 -2.45 -15.35 -10.35 -23.10 -15.70 -3 -2.10 -9.65 -6.60 -14.75 -10.05 -5.10 -3.40 -14.80 -10 -21.60 -14.60 l-12.40 -8.35 0 -1.95 c0 -3.60 3.40 -11.15 19.75 -44.35 l9.95 -20.15 1.85 0 1.80 0 6.90 13.90 c17.55 35.30 22.75 46.85 22.75 50.60 l0 1.95 -10.10 6.80 c-5.60 3.80 -10.45 7.15 -10.80 7.50 -0.75 0.65 -0.35 0.95 15.40 11.65 3.45 2.35 6.95 4.75 7.80 5.40 l1.55 1.15 6.70 -4.55 c9.70 -6.65 23.95 -16.30 25.80 -17.55 1.75 -1.20 1.75 -1.40 0.15 -5.10 -3.05 -6.75 -10.85 -23.50 -15.10 -32.25 -2.75 -5.65 -5.80 -11.95 -6.80 -14 -0.95 -2.05 -8.85 -18.15 -17.60 -35.75 -8.70 -17.60 -18.60 -37.70 -22 -44.60 -3.45 -6.95 -6.35 -12.65 -6.50 -12.65 -0.15 0 -2.25 4 -4.60 8.85 -4.85 9.95 -16.80 34.25 -31.85 64.80 -5.50 11.25 -10.05 20.50 -10.05 20.60 0 0.15 -2.55 5.35 -5.65 11.60 -5.95 12 -12.60 26.15 -15.50 32.95 l-1.75 4.05 27.05 18.45 c14.90 10.15 33.25 22.70 40.85 27.90 19.90 13.70 29.65 20.30 30 20.30 0.15 0 0.70 -0.75 1.20 -1.60z"/>
 </g>
 <g fill="#007867">
  <path d="M248.40 418.40 c-0.50 -0.95 -0.60 -7.20 -0.40 -32.65 0.15 -17.30 0.40 -31.10 0.60 -30.60 0.40 0.90 1.40 1.20 1.40 0.40 0 -0.25 1.90 -3.45 4.15 -7.15 2.30 -3.65 7.20 -11.50 10.85 -17.40 10.10 -16.35 12.35 -20 18.60 -30 3.15 -5.10 8.70 -14.10 12.35 -20 3.70 -5.90 7.50 -12.10 8.55 -13.75 5.85 -9.40 9.70 -15.60 18.50 -30.25 5.45 -8.95 13.05 -21.55 17 -28 3.90 -6.45 8.45 -13.90 10 -16.50 1.60 -2.60 4.75 -7.80 7 -11.50 2.30 -3.70 4.60 -7.55 5.15 -8.55 1.20 -2.25 3.20 -4.80 3.45 -4.45 0.10 0.15 1 1.60 1.95 3.25 1.80 3 17.60 28.85 24.95 40.75 2.15 3.45 6.35 10.30 9.35 15.25 3.05 4.95 7.55 12.35 10.10 16.45 l4.55 7.45 -1.35 1.80 c-0.75 1 -1.45 1.90 -1.65 2.05 -0.15 0.15 -1.25 1.50 -2.50 3 -2.90 3.50 -2.90 3.55 -9.55 11.50 -3.05 3.70 -5.85 7.15 -6.15 7.65 -0.30 0.45 -0.70 0.85 -0.85 0.85 -0.20 0 -1.60 -2.20 -3.20 -4.85 -1.60 -2.70 -5.80 -9.85 -9.40 -15.90 -3.60 -6.05 -8.40 -14.15 -10.70 -18 -2.25 -3.85 -4.30 -7.35 -4.55 -7.75 -0.35 -0.60 -0.60 -0.50 -1.20 0.50 -3.30 5.35 -14.80 24 -18.05 29.25 -2.20 3.60 -5.05 8.20 -6.35 10.25 -1.30 2.05 -4.70 7.60 -7.60 12.25 -6.65 10.80 -14.80 24 -20.50 33.15 -2.45 3.95 -4.65 7.65 -4.85 8.25 -0.25 0.60 -3.45 5.60 -7.15 11.10 -10.10 15.05 -41.85 66.75 -49.40 80.45 -1.65 2.95 -2.20 3.25 -3.10 1.70z"/>
  <path d="M461.20 384.15 c-4.50 -6.90 -11.20 -17.25 -15.45 -23.80 -1.65 -2.50 -6.15 -9.45 -10 -15.35 -3.80 -5.90 -9.15 -14.10 -11.85 -18.20 l-4.90 -7.40 1.60 -1.85 c0.85 -1 3.40 -3.80 5.65 -6.30 2.25 -2.45 6.65 -7.30 9.75 -10.75 3.10 -3.45 5.90 -6.30 6.20 -6.40 0.30 -0.05 1.10 0.90 1.75 2.15 0.65 1.20 1.35 2.15 1.55 2 0.20 -0.10 0.50 -1.50 0.65 -3.10 0.20 -1.60 0.55 -4.35 0.85 -6.15 0.80 -5.05 1.55 -11.10 1.40 -11.25 -0.10 -0.05 -3.35 3.40 -7.30 7.70 -3.90 4.30 -7.95 8.70 -9 9.80 -1 1.10 -8.50 9.20 -16.55 18 -8.10 8.80 -15.75 17.15 -17 18.50 -10.10 11 -14.15 15.40 -16.60 18 -3.85 4.20 -7.55 8.20 -9.20 10.15 -0.80 0.90 -1.75 1.50 -2.05 1.40 -0.35 -0.15 -3.65 -2.35 -7.30 -4.95 -3.65 -2.55 -8.45 -5.95 -10.65 -7.50 -2.20 -1.55 -4.80 -3.35 -5.75 -4.05 -0.95 -0.70 -4.80 -3.40 -8.50 -6 -16.65 -11.70 -20.50 -14.55 -20.50 -15.15 0 -0.35 0.65 -1.75 1.50 -3.10 0.80 -1.40 3.55 -6.30 6.05 -10.90 4.25 -7.70 6.25 -11.25 7.40 -13.10 0.40 -0.65 7.65 4 28.20 18.20 4.80 3.25 5 3.35 5.80 2.45 0.50 -0.55 3.65 -4.10 7.10 -7.95 3.40 -3.85 6.30 -7.10 6.45 -7.25 0.15 -0.15 1.95 -2.15 4 -4.50 2.05 -2.35 3.85 -4.35 4 -4.50 0.15 -0.15 1.95 -2.15 4 -4.50 2.05 -2.35 3.85 -4.35 4 -4.50 0.15 -0.15 4 -4.40 8.50 -9.50 4.55 -5.10 9.05 -10.15 10.05 -11.25 1 -1.10 3 -3.35 4.50 -5 1.50 -1.65 3.85 -4.35 5.20 -6 1.40 -1.65 2.60 -3.10 2.75 -3.25 0.15 -0.15 1.35 -1.50 2.70 -3 1.35 -1.50 3.60 -4 5 -5.50 2.10 -2.25 5.15 -5.65 12.55 -13.80 20.65 -22.80 38.45 -42.20 38.70 -42.20 0.20 0 0.20 1.40 0 3.15 -0.20 1.70 -0.65 5.90 -0.95 9.35 -0.30 3.45 -0.75 8.15 -1 10.50 -0.25 2.35 -0.70 6.60 -1 9.50 -1.15 11.25 -1.50 14.40 -1.95 19 -0.30 2.60 -0.75 7.10 -1.05 10 -0.30 2.90 -0.75 7.30 -1 9.75 -0.25 2.50 -0.70 6.85 -1 9.75 -0.30 2.90 -0.75 7.30 -1 9.75 -0.25 2.50 -0.70 6.85 -1 9.75 -0.30 2.90 -0.75 7.30 -1 9.75 -0.25 2.50 -0.70 6.85 -1 9.75 -0.30 2.90 -0.75 7.30 -1 9.75 -0.25 2.50 -0.70 6.85 -1 9.75 -0.30 2.90 -0.75 7.30 -1 9.75 -0.25 2.50 -0.70 6.85 -1 9.75 -0.30 2.90 -0.75 7.35 -1 9.90 -0.80 7.30 -1.40 13.45 -2 19.35 -0.30 3.05 -0.75 7.30 -1.05 9.45 -0.25 2.20 -0.45 4.80 -0.45 5.90 0 1.05 -0.25 1.90 -0.50 1.90 -0.30 0 -2.20 -2.65 -4.30 -5.85z"/>
  <path d="M269.25 290.85 c-4.95 -3.40 -11.75 -8.05 -15.15 -10.40 l-6.15 -4.25 -0.10 -19.85 c-0.05 -10.90 0.05 -19.85 0.25 -19.85 0.40 0 7.20 4.55 28.65 19.25 2.50 1.70 7.70 5.25 11.60 7.95 3.90 2.65 7.20 5 7.35 5.20 0.15 0.20 -2.85 5.35 -6.60 11.40 -3.75 6 -7.65 12.25 -8.60 13.85 -0.95 1.55 -1.85 2.85 -2 2.85 -0.15 -0.05 -4.30 -2.80 -9.25 -6.15z"/>
  <path d="M282.95 252.10 c-0.65 -0.50 -4.35 -3.05 -8.20 -5.70 -3.85 -2.60 -9.60 -6.50 -12.75 -8.65 -3.15 -2.15 -5.85 -4 -6 -4.15 -0.40 -0.30 2.10 -2.20 13.15 -9.65 5.70 -3.85 10.35 -7.20 10.35 -7.45 0 -2.15 -8.15 -19.75 -22.75 -49.10 -6.15 -12.40 -7.75 -15.20 -7.75 -13.35 0 0.30 -0.25 0.45 -0.55 0.35 -0.70 -0.25 -0.70 -71.20 0.05 -73.10 0.25 -0.70 0.65 -1.30 0.90 -1.30 0.20 0 3.50 6.35 7.35 14.15 3.80 7.75 14.05 28.50 22.75 46.10 8.75 17.60 16.65 33.70 17.60 35.75 1 2.05 4.05 8.35 6.80 14 4.20 8.65 12.55 26.50 14.85 31.75 1.65 3.75 2.25 5.45 2.25 6.25 0 0.60 -2.85 2.80 -8.35 6.55 -4.65 3.10 -9.50 6.45 -10.90 7.40 -8.75 6.15 -16.30 11.05 -16.90 11.05 -0.40 0 -1.25 -0.40 -1.90 -0.90z"/>
 </g>
 <g fill="#00a76f">
  <path d="M234 394.60 c-18.55 -31.10 -30 -49.80 -37.10 -60.60 -2.95 -4.50 -5.40 -8.30 -5.40 -8.50 0 -0.15 4.45 -3.30 9.85 -7 5.40 -3.70 11.50 -7.95 13.55 -9.40 2.05 -1.45 3.80 -2.60 3.85 -2.50 0.10 0.10 6.20 10.05 13.60 22.15 7.40 12.10 14.30 23.30 15.30 24.90 l1.90 2.90 -0.15 30.50 c-0.10 24.10 0 30.45 0.50 30.45 0.80 0 0.75 1.25 -0.05 1.95 -0.55 0.45 -3.65 -4.45 -15.85 -24.85z"/>
  <path d="M33.80 389.45 c-0.10 -0.40 -0.80 -6.55 -1.50 -13.70 -0.70 -7.15 -2.10 -20.65 -3.05 -30 -0.95 -9.35 -2.45 -23.65 -3.25 -31.75 -0.85 -8.10 -2.10 -20.15 -2.75 -26.75 -0.70 -6.60 -2.05 -19.75 -3 -29.25 -1 -9.50 -2.90 -28.05 -4.25 -41.25 -3 -29.05 -3.30 -32.65 -2.65 -32 0.25 0.30 8.10 8.90 17.45 19.20 9.30 10.30 22.85 25.25 30.10 33.20 7.20 8 13.10 14.70 13.10 15 0 0.90 -17.75 29.80 -18.30 29.85 -0.35 0 -1.50 -1.05 -2.60 -2.35 -1.10 -1.35 -2.15 -2.25 -2.30 -2.10 -0.25 0.20 2.40 19.65 2.85 21.15 0.10 0.25 0.60 -0.30 1.20 -1.25 2.80 -4.70 23.45 -38.55 34.25 -56.20 38.85 -63.45 44.60 -72.80 45 -72.90 0.45 -0.10 60 98.20 59.80 98.70 -0.15 0.40 -25.15 18.95 -25.55 18.95 -0.15 0 -0.70 -0.75 -1.25 -1.60 -0.55 -0.90 -6 -10.10 -12.10 -20.40 -6.15 -10.30 -13.05 -21.95 -15.40 -25.85 -2.30 -3.95 -4.35 -7.15 -4.55 -7.15 -0.30 0 -53.75 85.55 -55.10 88.20 -0.60 1.25 -45.10 70 -45.75 70.75 -0.10 0.10 -0.25 -0.10 -0.40 -0.50z"/>
  <path d="M127.15 360.35 c-0.50 -0.65 -9.20 -10.20 -19.40 -21.25 -10.15 -11.10 -18.55 -20.30 -18.60 -20.50 -0.25 -0.60 16.65 -28.35 17.25 -28.35 0.30 0 6.35 6.20 13.40 13.75 7.10 7.55 13.05 13.80 13.25 13.90 0.20 0.10 16.90 -11.40 37.05 -25.50 20.15 -14.15 38.40 -26.85 40.50 -28.30 l3.85 -2.60 14.15 9.80 c7.80 5.35 14.15 9.95 14.15 10.20 0 0.40 -113.95 80 -114.50 80 -0.10 0 -0.60 -0.50 -1.10 -1.15z"/>
  <path d="M243.75 273.35 c-2.45 -1.75 -18.30 -12.55 -35.10 -24.05 -16.85 -11.50 -30.65 -21.10 -30.65 -21.35 0 -1.55 8.90 -21.05 17.85 -39.10 3.10 -6.25 5.65 -11.45 5.65 -11.60 0 -0.10 4.85 -10.05 10.80 -22.10 20 -40.50 35.60 -72.35 36.25 -74.10 0.40 -0.95 0.60 -1.05 1.25 -0.50 0.50 0.40 0.55 0.75 0.20 0.95 -0.55 0.35 -0.80 70.60 -0.25 71.50 0.15 0.25 0.05 0.50 -0.20 0.60 -0.50 0.15 -20.15 39.80 -24.90 50.15 -2.80 6.15 -5.15 11.90 -5.15 12.75 0 0.25 6.25 4.65 13.90 9.85 7.60 5.15 14.60 9.85 15.55 10.50 0.95 0.65 1.40 1.15 1 1.15 -0.60 0 -0.70 2.90 -0.55 18.10 0.15 17.45 0 20.40 -0.80 20.40 -0.20 -0.05 -2.35 -1.45 -4.85 -3.15z"/>
 </g>
</svg>